<?xml version="1.0" encoding="utf-8"?>
<!-- Generator: Adobe Illustrator 27.0.0, SVG Export Plug-In . SVG Version: 6.00 Build 0)  -->
<svg version="1.1" id="Capa_1" xmlns="http://www.w3.org/2000/svg" xmlns:xlink="http://www.w3.org/1999/xlink" x="0px" y="0px"
	 viewBox="0 0 422 380" style="enable-background:new 0 0 422 380;" xml:space="preserve">
<g>
	<path d="M373.1,257.2c-3.4-0.2-5.8,2-6.1,5.3c-0.4,3.6,1.7,5.9,5.3,6.6c3.7-0.1,6.1-1.8,6.4-5.6C379,259.6,376.6,257.4,373.1,257.2
		z"/>
	<path d="M19.4,83.4c15.4,0,30.6-0.9,45.6,0.3c12.6,0.9,22.1-2.5,29.7-12.6c5.1-6.7,12.4-8.7,20.8-8.7c37.1,0.2,74.2,0.1,111.3,0.1
		c1.9,0,3.9,0,6.1,0c0-14.7,0-28.7,0-43c-71.3,0-142.2,0-213.5,0C19.4,41,19.4,62,19.4,83.4z M57.1,24.3c13.9,0.1,25,11.2,25,25.1
		c0,14-10.8,25-24.8,25.2c-13.8,0.2-25.2-11-25.2-24.8C32,35.6,43.1,24.3,57.1,24.3z"/>
	<path d="M57.1,65c8.3,0,15.2-6.9,15.4-15.2c0.1-8.7-6.7-15.6-15.3-15.6c-8.5,0-15.2,6.5-15.3,15C41.8,57.9,48.7,65,57.1,65z"/>
	<path d="M232.7,77.1c-2.2,0-4,0-5.8,0c-33.3,0-66.6,0.6-99.8-0.3C114,76.4,104,79.2,96,89.8c-4.8,6.4-12,8.4-20,8.3
		c-17.1-0.2-34.3,0-51.4,0c-1.8,0-3.5,0-5.3,0c0,87.9,0,175.2,0,262.6c71.3,0,142.2,0,213.4,0C232.7,266,232.7,171.7,232.7,77.1z
		 M42.9,222.3c-2.1-2.3-3.7-6-3.7-9.1C38.9,183.6,39,154,39,124.4c0-7.2,2.3-9.6,9.5-9.6c26.1-0.3,52-0.2,78-0.2
		c25.5,0,50.9,0,76.4,0c8.2,0,10.3,2.1,10.3,10.4c0,36.8,0,73.5,0,110.3c0,8.3-2,10.2-10.4,10.2c-43.6,0-87.2,0-130.8,0.1
		c-4.1,0-7.3-1.1-10.2-4.1C55.6,235,48.9,229,42.9,222.3z M135.3,267.5c-0.1,1.6-2.9,3.8-4.8,4.3c-3.4,0.7-6.9,0.2-10.4,0.2
		c-3.3,0-6.6,0-9.9,0c-3.1,0-5.6-1.4-5.1-4.6c0.3-1.9,2.7-4.7,4.3-4.8c7.2-0.5,14.5-0.5,21.8,0C132.8,262.7,135.4,265.9,135.3,267.5
		z M96.8,267.6c-1.7,1.5-3.3,3.8-5.2,4.2c-3.4,0.7-6.9,0.2-10.4,0.2c-3.3,0-6.6,0-9.9,0c-3.1,0-5.1-1.4-5.2-4.6c-0.1-3.3,2-4.9,5-5
		c6.9-0.2,13.9-0.4,20.8,0.2C93.7,262.8,95.2,265.9,96.8,267.6z M142,329.7c0,4.4-1.7,6.4-6.2,6.4c-21.3-0.1-42.6-0.1-63.8,0
		c-4.2,0-6-1.8-6-6c0.1-11.8,0.1-23.6,0-35.4c0-4.3,2-5.9,6.1-5.9c10.6,0.1,21.3,0,31.9,0c10.5,0,20.9,0.1,31.4,0
		c4.7-0.1,6.6,1.8,6.6,6.5C141.8,306.8,141.9,318.2,142,329.7z M196,320.2c-1.8,12.9-5.6,17.6-14,17.6c-8.4,0-12.2-4.9-13.6-17.8
		c-5.8-0.4-12.1-0.5-15.6-6.4c-1.4-2.5-2.5-5.6-2.4-8.4c0.2-7.9,5.4-11.4,17.8-12.7c1.8-13.1,5.7-18.2,13.8-18.2
		c8.2,0,12.4,5.3,13.7,16.3c5.6,2.7,10.8,4.5,15.1,7.6c1.9,1.4,2.8,5.3,2.9,8.1C214,314.2,209.1,317.8,196,320.2z"/>
	<path d="M193.7,231c1.6,0,3.2-0.1,4.9-0.2c0.1-33.9,0.1-67.5,0.1-101.3c-48.6,0-96.7,0-145.3,0c0,2.2,0,4,0,5.8
		c0,18.6,1.1,37.3-0.3,55.8c-1.2,15.7,2.7,27.8,15.7,36.7c2.3,1.5,5.1,3.1,7.7,3.1C115.6,231.1,154.7,231,193.7,231z"/>
	<path d="M402.6,107.9c-2.3,0-4.1,0-5.9,0c-16.3,0-32.6,0-48.9,0c-3.5,0-6-0.3-7.9-1.2c-3.2-1.5-4.5-4.5-5.4-10.4
		c-1.8-11.3-8.4-17-19.6-17.1c-19.1,0-38.3,0-57.4,0c-1.4,0-2.9,0.2-4.5,0.3c0,93.8,0,187.3,0,280.9c29,0,58,0,86.9,0
		c20.9,0,41.8,0,62.8,0C402.6,276.3,402.6,192.5,402.6,107.9z M323.9,277.8c0.1,4.5-2.1,6.3-6.4,6.2c-7.4-0.2-14.7-0.1-22-0.1
		c-7.1,0-14.3,0-21.4,0c-5.4,0-7-1.7-7.1-7.2c-0.1-7.5-0.1-15,0-22.4c0.1-5.2,1.7-7,6.8-7c14.5-0.1,28.9,0,43.4,0
		c4.5,0,6.8,1.8,6.7,6.6C323.8,261.9,323.8,269.9,323.9,277.8z M349.8,224.6c-0.4,1.8-2.8,4.2-4.6,4.6c-1.7,0.4-3.5,0.5-5.3,0.4
		c-1.7-0.1-3.5-0.2-5.2-0.2c-3.5,0-7,0.1-10.4,0c-3.1-0.1-5.5-2-4.7-5c0.4-1.8,3.1-4.1,4.8-4.3c5.2-0.4,10.4-0.3,15.5-0.2
		c1.6,0,3.2,0,4.9,0C348,219.9,350.4,221.6,349.8,224.6z M372.6,278.9c-8.3-0.1-15.5-7.4-15.5-15.7c0-8.5,7.6-16,16-15.8
		c8.3,0.1,15.5,7.4,15.5,15.7C388.6,271.7,381.2,279,372.6,278.9z M358,224.2c-0.1-1.2,2.6-3.7,4.3-4.1c3.6-0.6,7.3-0.1,10.9-0.1
		c3.5,0,7.1-0.5,10.4,0.2c1.9,0.4,3.3,2.9,4.9,4.4c-1.6,1.6-3,4.5-4.7,4.6c-7.2,0.5-14.5,0.5-21.8-0.1
		C360.4,229,358.2,226,358,224.2z M388.6,203.8c0,6.5-1.2,7.8-8,7.8c-13.6,0-27.1,0-40.7,0c-18.5,0-37.1,0-55.6,0
		c-3.8,0-7.7,0-11.5-0.1c-3.8-0.1-5.8-2.2-5.8-6c0-8,0-16,0-24c0-4.8,3-6.1,7.3-6.1c18,0.1,35.9,0.1,53.9,0.1c3.9,0,7.8,0,11.7,0
		c13.6,0,27.1,0,40.7,0c6.6,0,7.9,1.3,8,7.8C388.6,190.1,388.6,196.9,388.6,203.8z"/>
	<path d="M76.1,326.1c18.8,0,37.2,0,55.8,0c0-9.2,0-18.1,0-27.4c-19,0-37.4,0-55.8,0C76.1,308,76.1,317,76.1,326.1z"/>
	<path d="M277,273.8c12.6,0,24.7,0,36.9,0c0-5.7,0-11.1,0-16.4c-12.5,0-24.7,0-36.9,0C277,263,277,268.3,277,273.8z"/>
	<path d="M198.3,302.5c-4,0-8.1,0-12.5,0c0-4.1,0.1-7.3,0-10.4c-0.1-3.2,1-7.8-3.7-7.9c-5.1-0.1-3.7,4.9-3.9,8.1
		c-0.2,3.1,0,6.2,0,10.2c-4.7,0-8.8,0-12.9,0c-2.6,0-5.7,0.4-5.1,3.7c0.3,1.5,3.3,3.2,5.3,3.5c4,0.5,8.1,0.2,12.7,0.2
		c0,4.7,0,8.7,0,12.7c0,2.6,0.3,5.7,3.7,5.2c1.5-0.3,3.5-3.1,3.8-5c0.5-4,0.1-8,0.1-12.9c4.3,0,8.4,0,12.4,0c2.9,0,5.7-0.3,5.6-4
		C203.7,302.4,200.8,302.5,198.3,302.5z"/>
	<path d="M339.9,185.5c-21,0-42,0-63,0c0,5.5,0,10.6,0,16.1c21.2,0,42.1,0,63,0c12.8,0,25.6,0,38.5,0c0-5.6,0-10.8,0-16.1
		C365.5,185.5,352.7,185.5,339.9,185.5z"/>
	<path d="M198.2,309.9c-4,0-8.1,0-12.4,0c0,4.9,0.4,8.9-0.1,12.9c-0.3,1.9-2.3,4.7-3.8,5c-3.4,0.5-3.7-2.6-3.7-5.2c0-4,0-8,0-12.7
		c-4.6,0-8.7,0.3-12.7-0.2c-2-0.3-5-2-5.3-3.5c-0.6-3.3,2.5-3.7,5.1-3.7c4.1,0,8.2,0,12.9,0c0-4-0.2-7.1,0-10.2
		c0.2-3.2-1.2-8.2,3.9-8.1c4.7,0.1,3.6,4.7,3.7,7.9c0.1,3.1,0,6.3,0,10.4c4.4,0,8.5,0,12.5,0c2.5,0,5.4-0.1,5.5,3.4
		C203.9,309.6,201.1,309.9,198.2,309.9z"/>
	<path d="M378.7,263.5c-0.3,3.8-2.7,5.5-6.4,5.6c-3.6-0.7-5.7-3-5.3-6.6c0.3-3.3,2.7-5.5,6.1-5.3C376.6,257.4,379,259.6,378.7,263.5
		z"/>
	<path d="M57.2,34.2c8.6,0,15.4,6.9,15.3,15.6C72.3,58.1,65.4,65,57.1,65c-8.4,0-15.3-7.1-15.2-15.8C42,40.7,48.7,34.2,57.2,34.2z"
		/>
</g>
</svg>
