<?xml version="1.0" encoding="utf-8"?>
<!-- Generator: Adobe Illustrator 27.2.0, SVG Export Plug-In . SVG Version: 6.00 Build 0)  -->
<svg version="1.1" id="Capa_1" xmlns="http://www.w3.org/2000/svg" xmlns:xlink="http://www.w3.org/1999/xlink" x="0px" y="0px"
	 viewBox="0 0 422 379.8" style="enable-background:new 0 0 422 379.8;" xml:space="preserve">
<g>
	<path d="M253.1,60.3c20,0,39.7,0.3,59.5-0.1c19.1-0.4,32,7.8,39.1,25.6c0.5,1.3,3.2,2.5,4.9,2.5c17.3,0.2,34.6,0.1,51.9,0.1
		c10.3,0,13.5,3.1,13.5,13.3c0,88.4,0,176.7,0,265.1c0,10.2-2.9,13-13.1,13c-132,0-263.9,0-395.9,0C2.7,379.8,0,377.2,0,366.9
		C0,249,0,131,0,13C0,2.8,2.8,0,13,0c75.4,0,150.8,0,226.1,0c10.4,0,13.4,3,13.4,13.3c0,15.1,0.1,30.3,0.1,45.4
		C252.7,59.1,252.8,59.4,253.1,60.3z M232.7,360.7c0-94.7,0-189,0-283.6c-2.2,0-4,0-5.8,0c-33.3,0-66.6,0.6-99.8-0.3
		c-13.1-0.4-23.1,2.4-31.1,13c-4.8,6.4-12,8.4-20,8.3c-17.1-0.2-34.3,0-51.4,0c-1.8,0-3.5,0-5.3,0c0,87.9,0,175.2,0,262.6
		C90.6,360.7,161.5,360.7,232.7,360.7z M402.6,107.9c-2.3,0-4.1,0-5.9,0c-16.3,0-32.6,0-48.9,0c-9.4,0-11.9-2.2-13.3-11.6
		c-1.8-11.3-8.4-17-19.6-17.1c-19.1,0-38.3,0-57.4,0c-1.4,0-2.9,0.2-4.5,0.3c0,93.8,0,187.3,0,280.9c50,0,99.8,0,149.7,0
		C402.6,276.3,402.6,192.5,402.6,107.9z M19.4,19.5c0,21.5,0,42.5,0,63.9c15.4,0,30.6-0.9,45.6,0.3c12.6,0.9,22.1-2.5,29.7-12.6
		c5.1-6.7,12.4-8.7,20.8-8.7c37.1,0.2,74.2,0.1,111.3,0.1c1.9,0,3.9,0,6.1,0c0-14.7,0-28.7,0-43C161.6,19.5,90.7,19.5,19.4,19.5z"/>
	<path d="M126.5,114.6c25.5,0,50.9,0,76.4,0c8.2,0,10.3,2.1,10.3,10.4c0,36.8,0,73.5,0,110.3c0,8.3-2,10.2-10.4,10.2
		c-43.6,0-87.2,0-130.8,0.1c-4.1,0-7.3-1.1-10.2-4.1c-6.2-6.5-12.9-12.5-18.9-19.2c-2.1-2.3-3.7-6-3.7-9.1
		c-0.3-29.6-0.2-59.2-0.2-88.8c0-7.2,2.3-9.6,9.5-9.6C74.6,114.5,100.5,114.6,126.5,114.6z M198.7,129.5c-48.6,0-96.7,0-145.3,0
		c0,2.2,0,4,0,5.8c0,18.6,1.1,37.3-0.3,55.8c-1.2,15.7,2.7,27.8,15.7,36.7c2.3,1.5,5.1,3.1,7.7,3.1c39.1,0.2,78.2,0.1,117.2,0.1
		c1.6,0,3.2-0.1,4.9-0.2C198.7,196.9,198.7,163.3,198.7,129.5z"/>
	<path d="M104,288.8c10.5,0,20.9,0.1,31.4,0c4.7-0.1,6.6,1.8,6.6,6.5c-0.2,11.5-0.1,22.9,0,34.4c0,4.4-1.7,6.4-6.2,6.4
		c-21.3-0.1-42.6-0.1-63.8,0c-4.2,0-6-1.8-6-6c0.1-11.8,0.1-23.6,0-35.4c0-4.3,2-5.9,6.1-5.9C82.7,288.9,93.4,288.8,104,288.8z
		 M131.9,298.7c-19,0-37.4,0-55.8,0c0,9.3,0,18.3,0,27.4c18.8,0,37.2,0,55.8,0C131.9,316.9,131.9,308,131.9,298.7z"/>
	<path d="M168.2,292.5c1.8-13.1,5.7-18.2,13.8-18.2c8.2,0,12.4,5.3,13.7,16.3c5.6,2.7,10.8,4.5,15.1,7.6c1.9,1.4,2.8,5.3,2.9,8.1
		c0.3,7.9-4.6,11.5-17.7,13.9c-1.8,12.9-5.6,17.6-14,17.6c-8.4,0-12.2-4.9-13.6-17.8c-5.8-0.4-12.1-0.5-15.6-6.4
		c-1.4-2.5-2.5-5.6-2.4-8.4C150.6,297.3,155.8,293.8,168.2,292.5z M185.8,309.9c4.3,0,8.4,0,12.4,0c2.9,0,5.7-0.3,5.6-4
		c-0.1-3.5-3-3.4-5.5-3.4c-4,0-8.1,0-12.5,0c0-4.1,0.1-7.3,0-10.4c-0.1-3.2,1-7.8-3.7-7.9c-5.1-0.1-3.7,4.9-3.9,8.1
		c-0.2,3.1,0,6.2,0,10.2c-4.7,0-8.8,0-12.9,0c-2.6,0-5.7,0.4-5.1,3.7c0.3,1.5,3.3,3.2,5.3,3.5c4,0.5,8.1,0.2,12.7,0.2
		c0,4.7,0,8.7,0,12.7c0,2.6,0.3,5.7,3.7,5.2c1.5-0.3,3.5-3.1,3.8-5C186.2,318.8,185.8,314.8,185.8,309.9z"/>
	<path d="M46.4,263.1c8.9,0.1,16.5,7.9,16.2,16.8c-0.3,8.8-7.7,16.1-16.5,16c-9-0.1-16.1-7.5-16-16.7
		C30.2,270.3,37.6,263,46.4,263.1z M45.7,286c3.6,0.3,6.9-2.5,7.2-6.1c0.3-3.4-2.8-6.9-6.3-7c-3.8,0-6.3,1.9-6.7,5.8
		C39.5,282.6,42,285.7,45.7,286z"/>
	<path d="M120.1,272c-3.3,0-6.6,0-9.9,0c-3.1,0-5.6-1.4-5.1-4.6c0.3-1.9,2.7-4.7,4.3-4.8c7.2-0.5,14.5-0.5,21.8,0
		c1.6,0.1,4.2,3.3,4.1,4.9c-0.1,1.6-2.9,3.8-4.8,4.3C127.1,272.5,123.6,272,120.1,272z"/>
	<path d="M81.2,272c-3.3,0-6.6,0-9.9,0c-3.1,0-5.1-1.4-5.2-4.6c-0.1-3.3,2-4.9,5-5c6.9-0.2,13.9-0.4,20.8,0.2c1.8,0.2,3.3,3.3,4.9,5
		c-1.7,1.5-3.3,3.8-5.2,4.2C88.2,272.5,84.7,272,81.2,272z"/>
	<path d="M327.7,116.2c17.8,0,35.6,0,53.4,0c6.2,0,7.5,1.4,7.5,7.7c0,12.1,0,24.3,0,36.4c0,5.8-1.3,7.1-7,7.1
		c-35.9,0-71.8,0-107.7,0c-5.3,0-6.8-1.6-6.8-6.9c-0.1-12.5-0.1-24.9,0-37.4c0-5.4,1.7-6.9,7.3-6.9
		C292.1,116.2,309.9,116.2,327.7,116.2z M378.4,157.7c0-10.7,0-20.9,0-31.3c-34,0-67.7,0-101.4,0c0,10.6,0,20.8,0,31.3
		C310.9,157.7,344.4,157.7,378.4,157.7z"/>
	<path d="M328.2,175.5c17.5,0,34.9,0,52.4,0c6.6,0,7.9,1.3,8,7.8c0,6.8,0,13.6,0,20.5c0,6.5-1.2,7.8-8,7.8c-32.1,0-64.2,0-96.3,0
		c-3.8,0-7.7,0-11.5-0.1c-3.8-0.1-5.8-2.2-5.8-6c0-8,0-16,0-24c0-4.8,3-6.1,7.3-6.1C292.3,175.5,310.2,175.5,328.2,175.5z
		 M276.9,201.6c34.2,0,67.8,0,101.5,0c0-5.6,0-10.8,0-16.1c-34,0-67.7,0-101.5,0C276.9,191,276.9,196.1,276.9,201.6z"/>
	<path d="M295.5,283.9c-7.1,0-14.3,0-21.4,0c-5.4,0-7-1.7-7.1-7.2c-0.1-7.5-0.1-15,0-22.4c0.1-5.2,1.7-7,6.8-7
		c14.5-0.1,28.9,0,43.4,0c4.5,0,6.8,1.8,6.7,6.6c-0.1,8-0.1,16,0,23.9c0.1,4.5-2.1,6.3-6.4,6.2C310.1,283.8,302.8,283.9,295.5,283.9
		z M277,273.8c12.6,0,24.7,0,36.9,0c0-5.7,0-11.1,0-16.4c-12.5,0-24.7,0-36.9,0C277,263,277,268.3,277,273.8z"/>
	<path d="M293.1,334.9c-6.6,0-13.3-0.1-19.9,0c-4.2,0.1-6.1-2.1-6.1-6.1c-0.1-5.5,0-11,0-16.4c0-4.1,2.3-6,6.3-6
		c13.3,0,26.6,0,39.8,0c4.3,0,6.4,2.1,6.4,6.4c0,5.3,0,10.6,0,15.9c0,4.3-2.1,6.3-6.5,6.2C306.4,334.8,299.7,334.9,293.1,334.9z
		 M309.5,316.3c-11.1,0-21.8,0-32.4,0c0,3.1,0,5.8,0,8.5c11,0,21.5,0,32.4,0C309.5,321.9,309.5,319.3,309.5,316.3z"/>
	<path d="M362.2,334.9c-6.7,0-13.3-0.1-20,0c-4,0.1-5.9-1.9-5.9-5.7c-0.1-5.8-0.1-11.6,0-17.5c0-3.4,2-5.3,5.3-5.3
		c13.8-0.1,27.6-0.1,41.4,0c3.5,0,5.5,2,5.5,5.7c0,5.7,0,11.3,0,17c0,3.9-2,5.8-5.9,5.8C375.9,334.8,369,334.9,362.2,334.9z
		 M346.1,324.7c10.9,0,21.6,0,32.2,0c0-3.1,0-5.8,0-8.4c-11,0-21.5,0-32.2,0C346.1,319.3,346.1,321.9,346.1,324.7z"/>
	<path d="M388.6,263.1c0,8.6-7.4,15.9-16,15.8c-8.3-0.1-15.5-7.4-15.5-15.7c0-8.5,7.6-16,16-15.8
		C381.4,247.5,388.6,254.8,388.6,263.1z M372.3,269.1c3.7-0.1,6.1-1.8,6.4-5.6c0.3-3.9-2.1-6.1-5.6-6.3c-3.4-0.2-5.8,2-6.1,5.3
		C366.6,266.1,368.7,268.4,372.3,269.1z"/>
	<path d="M373.2,220c3.5,0,7.1-0.5,10.4,0.2c1.9,0.4,3.3,2.9,4.9,4.4c-1.6,1.6-3,4.5-4.7,4.6c-7.2,0.5-14.5,0.5-21.8-0.1
		c-1.6-0.1-3.8-3.1-4-4.9c-0.1-1.2,2.6-3.7,4.3-4.1C365.9,219.5,369.6,220,373.2,220C373.2,220,373.2,220,373.2,220z"/>
	<path d="M334.7,229.4c-3.5,0-7,0.1-10.4,0c-3.1-0.1-5.5-2-4.7-5c0.4-1.8,3.1-4.1,4.8-4.3c6.8-0.5,13.6-0.2,20.4-0.2
		c3.2,0,5.6,1.7,5,4.7c-0.4,1.8-2.8,4.2-4.6,4.6C341.8,230,338.2,229.4,334.7,229.4z"/>
	<path d="M82.1,49.4c0,14-10.8,25-24.8,25.2c-13.8,0.2-25.2-11-25.2-24.8c-0.1-14.2,11-25.5,25-25.5C71,24.4,82.1,35.5,82.1,49.4z
		 M57.2,34.2c-8.5,0-15.2,6.5-15.3,15c-0.1,8.7,6.8,15.8,15.2,15.8c8.3,0,15.2-6.9,15.4-15.2C72.6,41.1,65.8,34.2,57.2,34.2z"/>
	<path d="M106.3,35.5c0,4.8-3.8,8.7-8.6,8.8c-4.8,0.1-8.7-3.8-8.8-8.6c0-4.9,3.8-8.9,8.7-8.8C102.4,26.8,106.2,30.6,106.3,35.5z
		 M97.6,30.9c-2.6,0-4.6,2-4.6,4.5c0,2.6,2,4.7,4.6,4.7c2.5,0,4.6-2.1,4.6-4.6C102.2,33,100.2,30.9,97.6,30.9z"/>
	<path d="M127.9,35.5c0,4.8-3.8,8.7-8.6,8.8c-4.8,0.1-8.7-3.8-8.8-8.6c0-4.9,3.8-8.9,8.7-8.8C124,26.8,127.9,30.6,127.9,35.5z
		 M119.2,30.9c-2.6,0-4.6,2-4.6,4.5c0,2.6,2,4.7,4.6,4.7c2.5,0,4.6-2.1,4.6-4.6C123.8,33,121.8,30.9,119.2,30.9z"/>
	<path d="M149.5,35.5c0,4.8-3.8,8.7-8.6,8.8c-4.8,0.1-8.7-3.8-8.8-8.6c0-4.9,3.8-8.9,8.7-8.8C145.6,26.8,149.5,30.6,149.5,35.5z
		 M140.9,30.9c-2.6,0-4.6,2-4.6,4.5c0,2.6,2,4.7,4.6,4.7c2.5,0,4.6-2.1,4.6-4.6C145.5,33,143.5,30.9,140.9,30.9z"/>
	<path d="M126.1,141.2c16.1,0,32.3,0,48.4,0c6,0,7.2,1.3,7.3,7.4c0,19.5,0,38.9,0,58.4c0,6.2-1.3,7.6-7.7,7.6c-31.9,0-63.9,0-95.8,0
		c-6.5,0-7.8-1.3-7.8-8c0-19.1,0-38.3,0-57.4c0-6.9,1.1-7.9,8.2-7.9C94.5,141.2,110.3,141.2,126.1,141.2z M171.7,151.2
		c-30.6,0-60.8,0-91.2,0c0,18,0,35.7,0,53.5c30.6,0,60.8,0,91.2,0C171.7,186.8,171.7,169.2,171.7,151.2z"/>
</g>
</svg>
