<?xml version="1.0" encoding="utf-8"?>
<!-- Generator: Adobe Illustrator 27.2.0, SVG Export Plug-In . SVG Version: 6.00 Build 0)  -->
<svg version="1.1" id="Capa_1" xmlns="http://www.w3.org/2000/svg" xmlns:xlink="http://www.w3.org/1999/xlink" x="0px" y="0px"
	 viewBox="0 0 153.7 153.7" style="enable-background:new 0 0 153.7 153.7;" xml:space="preserve">
<style type="text/css">
	.st0{fill:none;stroke:#000000;stroke-width:5;stroke-miterlimit:10;}
</style>
<circle class="st0" cx="76.9" cy="76.9" r="74.4"/>
<path d="M76.9,19.7l10.2,34.3c0.6,1.9,2.5,3,4.4,2.5l34.8-8.3l-24.6,26c-1.3,1.4-1.3,3.6,0,5.1l24.6,26l-34.8-8.3
	c-1.9-0.5-3.8,0.7-4.4,2.5L76.9,134L66.6,99.7c-0.6-1.9-2.5-3-4.4-2.5l-34.8,8.3l24.6-26c1.3-1.4,1.3-3.6,0-5.1l-24.6-26l34.8,8.3
	c1.9,0.5,3.8-0.7,4.4-2.5L76.9,19.7z"/>
</svg>
