<?xml version="1.0" encoding="utf-8"?>
<!-- Generator: Adobe Illustrator 27.0.0, SVG Export Plug-In . SVG Version: 6.00 Build 0)  -->
<svg version="1.1" id="Capa_1" xmlns="http://www.w3.org/2000/svg" xmlns:xlink="http://www.w3.org/1999/xlink" x="0px" y="0px"
	 viewBox="0 0 153.6 153.6" style="enable-background:new 0 0 153.6 153.6;" xml:space="preserve">
<style type="text/css">
	.st0{fill:none;stroke:#000000;stroke-width:5;stroke-miterlimit:10;}
</style>
<path d="M76.8,0C34.4,0,0,34.4,0,76.8s34.4,76.8,76.8,76.8c42.4,0,76.8-34.4,76.8-76.8S119.2,0,76.8,0z M101.6,79.2l24.6,26
	l-34.8-8.3c-1.9-0.5-3.8,0.7-4.4,2.5l-10.2,34.5L66.5,99.6c-0.6-1.9-2.5-3-4.4-2.5l-34.8,8.3l24.6-26c1.3-1.4,1.3-3.6,0-5.1
	l-24.6-26l34.8,8.3c1.9,0.5,3.8-0.7,4.4-2.5l10.3-34.5L87,53.9c0.6,1.9,2.5,3,4.4,2.5l34.8-8.3l-24.6,26
	C100.3,75.5,100.3,77.7,101.6,79.2z"/>
</svg>
